<?xml version="1.0" encoding="UTF-8" standalone="no"?>
<svg width="200px" height="200px" viewBox="0 0 200 200" version="1.1" xmlns="http://www.w3.org/2000/svg" xmlns:xlink="http://www.w3.org/1999/xlink">
    <!-- Generator: Sketch 40.2 (33826) - http://www.bohemiancoding.com/sketch -->
    <title>Artboard</title>
    <desc>Created with Sketch.</desc>
    <defs>
        <linearGradient x1="50%" y1="139.352495%" x2="50%" y2="19.6270225%" id="linearGradient-1">
            <stop stop-color="#005BEA" offset="0%"></stop>
            <stop stop-color="#00C6FB" offset="100%"></stop>
        </linearGradient>
    </defs>
    <g id="Page-1" stroke="none" stroke-width="1" fill="none" fill-rule="evenodd">
        <g id="Artboard">
            <g id="Group-24" transform="translate(29.000000, 5.000000)">
                <g id="Group-20-Copy-2" transform="translate(0.166892, 0.000000)">
                    <g id="Page-1-Copy-2">
                        <path d="M69.2114299,96.614442 C52.6711123,96.614442 39.2649184,83.1655176 39.2649184,66.5710695 C39.2649184,49.9846661 52.6711123,36.5357417 69.2114299,36.5357417 C85.7557553,36.5357417 99.1619493,49.9846661 99.1619493,66.5710695 C99.1619493,83.1655176 85.7557553,96.614442 69.2114299,96.614442 M132.495078,82.441484 C126.156693,82.441484 121.022662,77.2887782 121.022662,70.9313608 C121.022662,69.5979322 121.261128,68.326851 121.677943,67.1342067 C120.375398,67.6510863 118.958629,67.9406997 117.477736,67.9406997 C111.141355,67.9406997 106.009328,62.7879938 106.009328,56.4325877 C106.009328,53.8924364 106.836945,51.5534056 108.225659,49.6508062 C103.237913,48.399837 99.5446971,43.8907165 99.5446971,38.4986773 C99.5446971,33.3882067 102.865185,29.0641171 107.458159,27.5617473 C104.303996,25.5103188 102.205897,21.952498 102.205897,17.8979098 C102.205897,14.8992039 103.356144,12.1780443 105.225797,10.1306381 C94.7332963,3.70483978 82.4052088,0.000201120449 69.2114299,0.000201120449 C30.9907518,0.000201120449 0.000200391539,31.0773328 0.000200391539,69.418935 C0.000200391539,110.407282 69.2114299,189.576336 69.2114299,189.576336 C69.2114299,189.576336 126.90215,126.106745 136.921727,81.5505204 C135.559064,82.1237137 134.064144,82.441484 132.495078,82.441484" id="Fill-1" fill="url(#linearGradient-1)"></path>
                        <path d="M137.636123,77.1860056 C137.477813,77.1940504 137.32752,77.2262297 137.167206,77.2262297 C131.472079,77.2262297 126.859066,72.5944258 126.859066,66.882605 C126.859066,65.6839272 127.073485,64.541563 127.446213,63.4716022 C126.275926,63.9341793 125.00344,64.1956359 123.67284,64.1956359 C117.977713,64.1956359 113.370711,59.5638319 113.370711,53.8540224 C113.370711,51.5733165 114.114164,49.4716078 115.360599,47.7640952 C110.877841,46.6398319 107.559357,42.5872549 107.559357,37.7422633 C107.559357,33.1486723 110.543187,29.2650364 114.669248,27.9155182 C111.835712,26.0712437 109.952032,22.8754398 109.952032,19.2331485 C109.952032,17.4351317 110.449003,15.7718655 111.250569,14.2976527 C108.984141,12.5720392 106.95217,11.2064314 105.371081,10.2209412 C103.413256,12.2864482 102.204895,15.0739776 102.204895,18.1491092 C102.204895,22.2036975 104.302994,25.7615182 107.457157,27.8129468 C102.864183,29.3153165 99.5436951,33.6394062 99.5436951,38.751888 C99.5436951,44.141916 103.238915,48.6510364 108.224657,49.9040168 C106.837947,51.804605 106.01033,54.1436359 106.01033,56.6837871 C106.01033,63.0391933 111.140353,68.1918992 117.476734,68.1918992 C118.959631,68.1918992 120.376399,67.9022857 121.676941,67.3854062 C121.260126,68.5780504 121.023664,69.8511429 121.023664,71.1845714 C121.023664,77.5399776 126.155691,82.6926835 132.49608,82.6926835 C134.003024,82.6926835 135.4238,82.3708908 136.740373,81.8399328 C137.093062,80.2631485 137.393649,78.7104986 137.636123,77.1860056" id="Fill-4" fill="#E4E4E4"></path>
                        <path d="M129.487401,32.6309882 C129.487401,32.6309882 126.000588,16.8832571 132.97221,16.8832571 C139.947839,16.8832571 142.126095,24.7571227 129.487401,32.6309882" id="Fill-6" fill="#E4E4E4"></path>
                        <path d="M136.289692,56.574981 C136.289692,56.574981 143.698167,52.6390538 139.774501,46.5169473 C135.852838,40.3928297 127.91533,46.5169473 130.576529,51.5449585 C133.239733,56.574981 134.229667,58.0753395 136.289692,56.574981" id="Fill-8" fill="#E4E4E4"></path>
                        <path d="M126.000188,36.349102 C126.000188,38.4025417 124.34295,40.067819 122.294948,40.067819 C120.24895,40.067819 118.591712,38.4025417 118.591712,36.349102 C118.591712,34.2956622 120.24895,32.6303849 122.294948,32.6303849 C124.34295,32.6303849 126.000188,34.2956622 126.000188,36.349102" id="Fill-10" fill="#E4E4E4"></path>
                    </g>
                </g>
            </g>
        </g>
    </g>
</svg>